<?xml version="1.0" standalone="no"?>
<!DOCTYPE svg PUBLIC "-//W3C//DTD SVG 20010904//EN"
 "http://www.w3.org/TR/2001/REC-SVG-20010904/DTD/svg10.dtd">
<svg version="1.0" xmlns="http://www.w3.org/2000/svg"
 width="408.000000pt" height="600.000000pt" viewBox="0 0 408.000000 600.000000"
 preserveAspectRatio="xMidYMid meet">

<g transform="translate(0.000000,600.000000) scale(0.100000,-0.100000)"
fill="#000000" stroke="none">
<path d="M2710 5901 c-19 -67 -26 -80 -47 -86 -15 -3 -30 -18 -38 -38 -7 -18
-23 -38 -34 -45 -12 -7 -21 -19 -21 -27 0 -8 -7 -15 -15 -15 -25 0 -17 17 23
50 l37 32 -42 -23 c-57 -32 -68 -63 -46 -135 18 -56 28 -67 36 -36 4 14 6 13
12 -6 6 -18 10 -21 17 -10 7 9 8 5 4 -13 -4 -19 2 -34 24 -59 18 -21 30 -45
30 -62 0 -16 7 -31 15 -34 9 -4 15 -19 15 -37 0 -17 7 -38 15 -47 9 -10 18
-46 22 -85 6 -66 6 -67 -15 -60 -25 7 -26 6 -12 -30 6 -15 22 -30 40 -36 36
-13 36 -14 10 -57 -14 -23 -26 -32 -38 -28 -54 16 -113 28 -118 23 -3 -3 9
-32 25 -66 24 -46 28 -61 17 -61 -23 0 -29 -20 -12 -39 22 -24 20 -65 -6 -142
-21 -61 -23 -62 -29 -34 -4 17 -7 45 -8 63 0 17 -3 32 -6 32 -24 0 -71 -39
-97 -81 l-31 -51 -71 7 c-85 8 -103 23 -80 66 8 16 18 29 22 29 4 0 13 4 21 9
12 8 12 12 2 25 -10 12 -10 23 -1 50 10 30 8 41 -15 86 l-26 51 36 43 c19 24
35 46 35 50 0 5 -24 6 -53 4 -34 -2 -60 2 -70 10 -8 7 -23 12 -31 10 -10 -2
-47 40 -107 122 -50 69 -155 193 -234 276 -114 119 -159 176 -216 268 -39 64
-73 115 -75 114 -1 -2 6 -71 17 -153 18 -133 75 -356 119 -462 7 -18 2 -28
-35 -62 -25 -23 -51 -41 -59 -41 -8 0 -35 27 -60 59 -38 49 -56 63 -101 80
-31 12 -68 21 -84 21 -32 0 -131 -28 -148 -42 -11 -8 -90 83 -183 209 -13 18
-25 31 -27 30 -1 -2 18 -73 43 -158 25 -85 48 -173 51 -196 5 -40 6 -41 37
-36 27 4 34 1 44 -21 14 -31 15 -39 4 -32 -4 2 -25 -6 -47 -19 -31 -19 -36
-25 -22 -31 27 -10 22 -52 -8 -60 -34 -8 -53 0 -58 28 -4 20 -4 19 -6 -6 l-1
-28 -21 23 c-18 21 -19 21 -10 3 6 -12 30 -36 55 -55 45 -33 58 -63 34 -72 -7
-2 -21 0 -31 5 -21 11 -21 11 3 -40 11 -22 20 -46 20 -52 0 -6 5 -8 10 -5 6 4
10 -6 10 -24 0 -16 -6 -31 -12 -34 -9 -3 -7 -9 6 -19 10 -8 16 -20 12 -26 -9
-16 23 -29 61 -25 18 1 35 -2 39 -9 4 -7 14 2 24 22 l17 34 17 -32 c17 -34 13
-56 -18 -82 -27 -22 -18 -30 33 -30 l48 0 96 -157 c110 -183 180 -320 174
-338 -3 -7 -18 -15 -34 -18 -96 -20 -199 -129 -228 -242 -9 -33 -26 -70 -38
-83 -19 -21 -22 -33 -19 -97 l2 -73 -50 -31 c-35 -21 -50 -37 -50 -52 0 -18 5
-21 30 -17 17 3 30 2 30 -1 0 -3 -14 -32 -30 -65 -20 -39 -28 -68 -25 -90 2
-17 4 -37 4 -44 1 -7 10 -16 22 -20 20 -8 20 -8 1 -32 -11 -14 -38 -66 -62
-117 -31 -66 -41 -99 -36 -117 8 -31 28 -34 47 -7 11 15 133 174 146 190 2 2
5 2 8 0 2 -3 -9 -25 -26 -49 -54 -81 -102 -192 -109 -255 -6 -51 -2 -79 26
-184 19 -69 34 -130 34 -138 0 -8 -12 -13 -29 -13 -23 0 -34 9 -59 47 l-31 47
-23 -50 c-13 -27 -26 -50 -30 -52 -5 -2 -8 -10 -8 -18 0 -15 -58 -49 -68 -40
-13 14 27 95 71 145 44 48 49 57 44 88 -4 19 -17 49 -30 66 -13 18 -35 57 -50
87 -39 83 -57 110 -111 165 l-49 50 32 -44 c37 -53 39 -69 9 -80 l-23 -8 24
-8 c18 -5 28 -3 39 11 13 17 14 16 7 -16 -15 -67 -12 -83 15 -90 14 -3 25 -12
25 -20 0 -7 6 -15 13 -17 6 -3 12 3 12 13 0 31 18 1 22 -36 2 -30 0 -35 -19
-38 -33 -5 -43 -23 -51 -102 l-7 -72 -40 -14 c-30 -10 -41 -10 -47 -1 -8 13
-68 -38 -68 -58 0 -6 -6 -19 -13 -30 -14 -17 -15 -17 -45 1 -18 10 -31 23 -31
29 3 29 -1 39 -13 27 -18 -18 -62 -14 -91 8 -14 11 -29 20 -34 20 -5 0 -19 13
-31 30 -13 17 -28 27 -36 24 -22 -8 -84 25 -107 57 -14 20 -29 29 -47 29 -16
0 -32 8 -40 20 -7 11 -19 20 -27 20 -9 0 -27 8 -42 17 l-25 17 20 -40 c27 -53
99 -118 148 -134 21 -7 53 -23 69 -35 37 -27 93 -55 112 -55 7 0 13 -4 13 -10
0 -5 -18 -10 -40 -10 -40 0 -90 -17 -90 -31 0 -28 15 -39 52 -39 44 0 82 -16
73 -31 -4 -5 -16 -9 -27 -9 -12 0 -45 -22 -74 -50 l-53 -50 26 -14 26 -13 -59
-40 c-32 -22 -68 -51 -79 -63 -11 -12 -40 -32 -65 -45 -54 -28 -180 -170 -228
-259 -55 -101 -75 -203 -52 -276 7 -24 7 -23 15 13 8 41 9 42 45 50 23 6 27 0
59 -73 19 -45 48 -93 68 -112 l34 -33 -16 39 c-16 37 -15 39 4 53 14 10 21 25
21 49 0 40 9 43 39 10 19 -21 21 -27 11 -47 -11 -20 -10 -21 6 -14 24 11 63
11 89 0 16 -6 18 -6 7 6 -15 16 -16 29 -1 29 7 0 34 16 60 35 27 19 59 35 72
36 12 0 17 3 11 5 -14 6 24 84 66 135 16 20 32 50 36 65 10 44 15 47 31 25 18
-27 43 -27 88 0 29 17 61 23 168 30 121 7 222 21 335 47 23 6 42 8 42 6 0 -8
-132 -226 -192 -319 -32 -49 -63 -107 -69 -130 -6 -22 -15 -51 -19 -65 -4 -14
-8 -157 -8 -319 -1 -236 -4 -296 -15 -310 -7 -9 -19 -30 -26 -48 -7 -17 -22
-34 -34 -37 -19 -4 -22 -13 -24 -63 -6 -152 -8 -145 26 -175 48 -43 78 -38
102 18 18 41 24 45 50 42 18 -2 33 3 39 12 17 28 24 -2 7 -31 -21 -38 -22 -56
-2 -39 13 10 19 9 38 -6 57 -49 62 -79 15 -90 -63 -13 -236 -155 -220 -181 13
-20 121 -46 166 -39 22 4 71 2 108 -5 54 -10 83 -10 138 0 55 10 101 10 218 1
139 -11 205 -26 296 -65 34 -14 63 -16 230 -10 105 4 194 9 198 12 4 2 2 13
-4 23 -14 22 -5 31 59 65 33 18 34 18 82 -5 49 -22 49 -22 70 -3 12 11 39 25
61 32 46 14 141 6 155 -12 6 -7 17 -11 26 -9 8 1 35 -6 59 -17 40 -18 47 -18
79 -5 30 12 53 13 141 4 58 -5 130 -14 162 -19 54 -9 66 -8 205 24 14 3 30 23
47 60 22 49 24 62 17 125 -6 56 -5 67 6 58 7 -6 13 -17 13 -24 0 -12 4 -12 24
1 23 15 26 15 45 -4 12 -12 34 -21 49 -21 15 0 33 -5 38 -10 6 -6 33 -14 60
-19 27 -5 57 -12 66 -16 15 -6 15 -1 -4 44 -21 48 -21 53 -6 84 13 27 14 41 5
74 -9 35 -8 45 7 68 20 31 22 28 -26 48 -21 9 -38 22 -38 29 0 7 -6 25 -14 40
-17 32 -6 36 64 28 l45 -5 -2 -47 c-2 -25 4 -65 12 -87 10 -29 11 -49 5 -73
-11 -35 -6 -44 25 -50 12 -2 23 -16 29 -36 5 -19 20 -41 32 -49 21 -13 27 -13
63 7 46 26 60 69 40 127 -6 19 -8 52 -5 74 6 35 4 39 -18 45 -17 4 -29 19 -41
50 -9 24 -21 44 -26 44 -5 0 -9 5 -9 12 0 6 -8 20 -17 31 -18 19 -21 40 -26
171 -2 49 -5 60 -23 67 -12 4 -28 25 -37 47 -10 25 -29 48 -52 62 -29 18 -34
26 -28 44 4 11 7 39 6 61 -2 22 -4 64 -5 94 -3 44 -7 56 -24 64 -12 5 -28 26
-37 47 -8 21 -28 46 -43 56 -40 26 -42 30 -30 74 7 30 7 49 -3 75 -7 21 -10
52 -7 73 6 33 4 39 -23 53 -18 11 -31 28 -36 47 -4 20 -19 39 -45 56 -37 25
-38 26 -27 61 8 27 7 48 -2 85 -7 27 -10 63 -6 80 6 25 3 31 -19 41 -14 7 -31
28 -40 49 -9 23 -29 46 -50 60 -20 12 -36 25 -36 29 0 11 69 143 81 156 5 5 9
21 9 36 0 22 6 30 34 39 19 6 42 23 51 37 16 23 16 29 3 52 -9 14 -18 45 -22
69 -3 24 -24 78 -45 120 -34 66 -47 82 -98 115 -56 37 -60 39 -118 32 -33 -4
-66 -11 -73 -17 -7 -6 -14 -9 -17 -7 -10 11 -26 190 -20 239 5 43 2 65 -14 99
-16 36 -18 58 -14 113 6 68 6 68 -20 68 -24 0 -26 4 -32 64 -8 77 1 99 56 126
22 12 42 27 45 35 9 23 126 93 215 129 87 35 201 97 279 149 109 75 182 107
289 128 198 37 212 31 -159 70 l-105 11 -115 -45 c-159 -62 -254 -107 -330
-155 -74 -46 -143 -76 -162 -69 -7 2 -30 -2 -52 -9 -21 -8 -43 -11 -48 -8 -13
8 -1 55 22 79 10 11 27 38 38 60 23 44 69 86 214 193 88 65 107 86 204 220 93
127 114 163 152 262 39 101 46 132 58 255 l14 140 -53 153 -52 152 -5 -167 -5
-168 -50 -90 c-93 -169 -137 -229 -259 -350 -112 -111 -159 -166 -243 -288
-33 -48 -125 -117 -156 -117 -9 0 -35 -11 -57 -25 -45 -29 -78 -32 -87 -9 -3
9 1 40 9 70 13 44 13 57 2 72 -11 17 -9 23 22 53 20 19 61 76 91 128 74 125
171 251 194 251 11 0 19 9 21 23 2 18 12 24 51 31 26 5 47 12 47 16 0 3 -16
21 -35 40 -19 19 -35 38 -35 42 0 5 14 14 32 20 l32 11 -34 28 -34 28 41 88
c23 49 49 119 58 156 l16 68 -34 56 c-29 47 -33 61 -25 83 7 22 4 36 -19 73
-18 30 -33 45 -42 41 -16 -5 -31 13 -31 39 0 15 5 17 37 11 l37 -7 -35 31
c-38 35 -30 40 24 17 48 -20 54 -19 31 6 -16 19 -13 18 23 -5 24 -14 45 -26
49 -26 3 0 -17 25 -45 56 -49 54 -64 88 -21 49 19 -17 20 -17 20 0 0 14 6 16
30 13 45 -7 36 6 -17 25 -45 16 -143 89 -143 106 0 5 12 6 28 4 65 -11 -75 56
-163 77 l-93 22 -6 42 c-12 74 -22 72 -46 -13z m-1493 -793 c-3 -7 -5 -2 -5
12 0 14 2 19 5 13 2 -7 2 -19 0 -25z m428 -73 c0 -14 -3 -25 -7 -25 -5 0 -8
-8 -8 -18 0 -11 -7 -33 -16 -51 -13 -26 -21 -31 -39 -27 -18 5 -24 1 -28 -16
-6 -21 -7 -21 -27 -3 -11 10 -20 23 -20 30 0 13 61 60 75 58 6 -1 22 16 37 37
15 22 29 40 30 40 2 0 3 -11 3 -25z m-405 -60 c-7 -8 -17 -12 -23 -8 -6 4 -3
9 9 14 27 11 28 11 14 -6z m-60 1 c0 -2 -7 -9 -15 -16 -12 -10 -15 -10 -15 4
0 9 7 16 15 16 8 0 15 -2 15 -4z m474 -69 c-13 -16 -22 -33 -18 -38 3 -5 1 -9
-5 -9 -6 0 -14 12 -17 27 -8 29 10 49 44 49 19 0 19 -2 -4 -29z m-78 -82 c-38
-13 -46 3 -21 42 l17 25 17 -28 18 -29 -31 -10z m-356 4 c0 -20 -75 -26 -83
-6 -3 8 8 12 39 12 24 0 44 -3 44 -6z m469 -43 c8 -10 9 -16 1 -21 -13 -8 -30
3 -30 21 0 18 14 18 29 0z m-538 -56 l-8 -35 -8 29 c-5 20 -4 31 6 37 18 11
19 9 10 -31z m649 -94 c0 -6 -7 -2 -15 8 -8 11 -15 25 -15 30 0 6 7 2 15 -8 8
-11 15 -25 15 -30z m-27 -41 l38 -45 -40 0 c-31 0 -41 4 -46 21 -6 18 0 69 8
69 2 0 20 -20 40 -45z m69 -120 l37 -6 -3 -97 c-4 -95 -4 -97 -27 -94 -13 1
-27 6 -31 10 -6 6 -68 202 -68 216 0 3 12 -1 28 -9 15 -8 44 -17 64 -20z m481
-157 c-12 -99 -18 -113 -42 -110 -12 2 -30 11 -40 21 -17 17 -16 22 8 106 l25
88 27 -31 c23 -26 27 -37 22 -74z m-998 -677 c-7 -23 -25 -29 -25 -8 0 14 21
39 28 33 2 -3 1 -14 -3 -25z m345 -70 c0 -9 -24 -21 -42 -21 -6 0 -6 6 2 15
14 16 40 20 40 6z m-210 -31 c0 -5 -7 -7 -15 -4 -8 4 -15 8 -15 10 0 2 7 4 15
4 8 0 15 -4 15 -10z m75 -10 c-3 -5 -1 -10 6 -10 10 0 10 -3 1 -12 -7 -7 -12
-20 -12 -29 0 -17 -23 -32 -34 -22 -8 8 -8 68 1 76 10 11 45 8 38 -3z m45 -39
c0 -10 -30 -24 -37 -17 -3 3 -2 9 2 15 8 13 35 15 35 2z m65 -63 c1 -13 -6
-29 -16 -36 -15 -10 -17 -17 -9 -32 13 -24 13 -63 0 -55 -5 3 -10 14 -10 25 0
24 -26 33 -44 15 -21 -21 -26 -19 -26 13 0 22 2 24 11 12 8 -12 9 -9 5 13 -6
24 -2 30 29 48 19 12 35 26 35 32 0 21 24 -12 25 -35z m-135 -58 c0 -10 5 -22
10 -25 15 -9 12 -25 -5 -25 -8 0 -15 5 -15 11 0 6 -7 9 -15 5 -16 -6 -16 -3
-21 69 l-2 40 24 -28 c13 -16 24 -37 24 -47z m193 10 c8 -39 0 -60 -25 -60
-16 0 -18 5 -13 38 9 53 14 64 24 58 4 -3 11 -19 14 -36z m-277 -79 c5 -24 3
-31 -8 -31 -18 0 -48 73 -48 115 l0 30 25 -42 c14 -23 28 -55 31 -72z m-90 22
c-10 -10 -19 5 -10 18 6 11 8 11 12 0 2 -7 1 -15 -2 -18z m128 -30 c13 -24 15
-25 16 -8 0 17 2 17 10 5 9 -13 11 -13 20 0 6 10 10 11 10 3 0 -7 5 -13 10
-13 6 0 10 8 10 17 0 13 3 14 12 5 8 -8 8 -15 -1 -26 -16 -19 -101 -20 -101
-1 0 7 -3 20 -6 29 -10 26 4 18 20 -11z m140 0 c4 -10 4 -14 0 -10 -4 4 -13 2
-20 -4 -9 -8 -11 -5 -7 10 7 25 19 27 27 4z m-72 -143 c-5 -62 -45 -97 -55
-47 -3 15 -5 11 -6 -13 -1 -19 -6 -44 -11 -55 -6 -15 -9 -9 -9 27 -1 26 5 53
12 60 7 7 20 26 30 41 23 36 43 30 39 -13z m28 -51 c0 -31 -4 -48 -10 -44 -11
7 -13 54 -4 79 10 27 14 18 14 -35z m42 19 c-9 -9 -12 -7 -12 12 0 19 3 21 12
12 9 -9 9 -15 0 -24z m-171 -44 c-5 -16 -10 -21 -10 -12 -1 18 10 51 15 45 2
-1 -1 -16 -5 -33z m66 -116 c-3 -8 -6 -5 -6 6 -1 11 2 17 5 13 3 -3 4 -12 1
-19z m-507 -576 c0 -14 -11 -21 -26 -15 -21 8 -17 23 6 23 11 0 20 -4 20 -8z
m893 -119 c3 -16 3 -30 1 -33 -7 -7 -24 23 -24 43 0 27 17 20 23 -10z m-206
-35 c-3 -8 -6 -5 -6 6 -1 11 2 17 5 13 3 -3 4 -12 1 -19z m1633 -58 c0 -11 -2
-20 -4 -20 -2 0 -6 9 -9 20 -3 11 -1 20 4 20 5 0 9 -9 9 -20z m-1269 -30 c9 0
24 -9 34 -20 17 -18 17 -21 1 -45 -15 -23 -21 -26 -43 -24 -5 0 -7 8 -5 17 2
15 1 15 -11 0 -27 -34 -44 -22 -55 40 -5 31 -8 60 -6 64 3 4 19 -2 37 -12 18
-11 39 -20 48 -20z m1363 -156 c3 -12 9 -30 12 -41 5 -17 5 -17 -9 0 -8 9 -26
17 -41 17 -14 0 -26 4 -26 9 0 5 -2 15 -5 23 -4 9 5 13 29 14 28 0 36 -4 40
-22z m-1924 -28 c0 -19 -120 -199 -127 -192 -3 3 -1 11 4 18 5 7 20 40 33 73
29 75 50 104 73 105 9 0 17 -2 17 -4z m1970 -160 c0 -8 -4 -18 -10 -21 -5 -3
-10 -4 -10 -1 0 2 -3 11 -6 20 -4 11 -1 16 10 16 9 0 16 -6 16 -14z m-2991 -5
c11 -7 10 -17 -9 -57 -29 -61 -29 -61 -40 -44 -12 19 -12 52 0 84 10 27 25 32
49 17z m2935 -10 c12 -13 15 -28 11 -57 -4 -25 0 -55 9 -83 18 -50 20 -59 7
-45 -11 11 -61 167 -61 189 0 20 13 19 34 -4z m124 -156 c16 4 22 -1 31 -26
16 -45 14 -52 -9 -29 -11 11 -29 20 -39 20 -18 0 -31 18 -31 42 0 6 6 6 15 -2
8 -6 23 -9 33 -5z m-3088 -103 c0 -8 -43 -32 -57 -32 -3 0 2 9 12 20 18 20 45
27 45 12z m3049 -54 c7 -21 21 -40 32 -43 28 -9 42 -42 34 -82 -4 -22 0 -50
11 -79 12 -32 14 -48 6 -56 -7 -7 -14 2 -23 33 -6 24 -27 83 -45 130 -37 93
-54 161 -37 144 6 -5 16 -27 22 -47z m111 -48 c0 -11 -4 -20 -9 -20 -11 0 -22
26 -14 34 12 12 23 5 23 -14z m-2452 -198 c3 -170 -5 -208 -44 -218 -21 -5
-22 -10 -17 -54 3 -30 1 -50 -6 -54 -8 -5 -11 14 -11 66 0 40 -5 117 -10 170
-10 106 -11 105 60 210 14 21 25 38 25 38 0 0 1 -71 3 -158z m2556 -12 c16
-44 16 -44 -2 -22 -10 13 -30 25 -45 25 -15 1 -27 5 -27 9 0 3 -2 12 -5 20 -4
9 5 13 29 13 31 0 35 -4 50 -45z m-77 -109 c17 -40 -1 -32 -23 11 -12 22 -12
29 -3 26 7 -2 19 -19 26 -37z m113 -51 c0 -21 -15 -27 -25 -10 -7 12 2 30 16
30 5 0 9 -9 9 -20z m-58 -17 c18 -16 25 -53 11 -53 -9 1 -43 70 -35 70 3 0 14
-7 24 -17z m-2542 -157 c-13 -11 -20 -16 -17 -10 4 6 12 24 18 40 10 24 13 26
17 10 2 -11 -5 -27 -18 -40z m2706 -43 c7 -18 12 -33 11 -33 -2 0 -21 19 -42
41 -22 23 -32 39 -23 36 10 -3 21 -1 25 5 5 9 8 8 11 -2 3 -8 11 -30 18 -47z
m-2779 -85 c-24 -15 -28 -7 -22 45 10 81 17 87 26 23 7 -44 6 -62 -4 -68z
m2677 16 c23 -9 20 -34 -5 -34 -28 0 -61 19 -54 31 7 10 36 12 59 3z m-2624
-23 c0 -22 -16 -36 -24 -22 -8 12 3 41 15 41 5 0 9 -9 9 -19z m29 -73 l-2 -53
-7 45 c-7 42 -5 60 6 60 2 0 3 -24 3 -52z m2731 7 c0 -8 -4 -17 -10 -20 -6 -4
-10 5 -10 20 0 15 4 24 10 20 6 -3 10 -12 10 -20z m-2816 -122 c-9 -21 -21
-53 -27 -70 -12 -37 -26 -41 -51 -14 -16 17 -16 21 0 62 21 54 23 56 32 42 6
-9 14 -9 32 1 14 8 26 14 28 15 1 1 -5 -16 -14 -36z m112 1 c-3 -9 -6 -18 -6
-20 0 -2 -4 -4 -9 -4 -5 0 -7 9 -4 20 3 11 10 20 15 20 6 0 7 -7 4 -16z m2776
-49 c9 4 19 -10 31 -41 18 -50 17 -58 -14 -74 -17 -10 -22 -5 -39 35 -11 26
-23 58 -26 72 -6 23 -5 24 14 14 11 -6 27 -9 34 -6z m-2684 -14 c3 -8 -1 -12
-9 -9 -7 2 -15 10 -17 17 -3 8 1 12 9 9 7 -2 15 -10 17 -17z m12 -211 c-8 -5
-24 -9 -35 -9 l-20 0 20 9 c11 5 27 9 35 9 13 1 13 0 0 -9z m1440 -19 c0 -5
10 -11 21 -14 21 -6 21 -7 4 -23 -17 -17 -18 -17 -36 5 -18 22 -18 41 2 41 5
0 9 -4 9 -9z m-1590 -31 c0 -5 -5 -10 -11 -10 -5 0 -7 5 -4 10 3 6 8 10 11 10
2 0 4 -4 4 -10z"/>
<path d="M1051 5084 c0 -11 3 -14 6 -6 3 7 2 16 -1 19 -3 4 -6 -2 -5 -13z"/>
<path d="M641 3076 c-13 -13 -21 -32 -19 -43 3 -13 10 -7 26 25 26 48 24 52
-7 18z"/>
<path d="M547 2933 c-4 -3 -7 -13 -7 -21 0 -12 3 -12 15 -2 8 7 15 16 15 21 0
11 -14 12 -23 2z"/>
</g>
</svg>
